<?xml version="1.0" encoding="utf-8"?>
<!-- Generator: Adobe Illustrator 22.1.0, SVG Export Plug-In . SVG Version: 6.00 Build 0)  -->
<svg version="1.1" id="Layer_1" xmlns="http://www.w3.org/2000/svg" xmlns:xlink="http://www.w3.org/1999/xlink" x="0px" y="0px"
	 viewBox="0 0 256 256" style="enable-background:new 0 0 256 256;" xml:space="preserve">
<style type="text/css">
	.st0{fill:#D73735;}
	.st1{fill:#F85252;}
	.st2{fill:#EDAF85;}
	.st3{fill:#F7C09A;}
	.st4{fill:#D8D6D7;}
	.st5{fill:#FFFFFF;}
	.st6{fill:#1C868E;}
	.st7{fill:#40C4DF;}
	.st8{fill:#491352;}
	.st9{fill:#56C1B3;}
	.st10{fill:#7BEFE4;}
</style>
<g>
	<path class="st6" d="M199.24,8.29v239.42c0,2.76-2.24,5-5,5H61.76c-2.76,0-5-2.24-5-5V8.29c0-2.76,2.24-5,5-5h132.48
		C197,3.29,199.24,5.53,199.24,8.29z"/>
	<path class="st7" d="M199.24,8.29v239.42c0,2.76-2.24,5-5,5H73.26c-2.76,0-5-2.24-5-5V8.29c0-2.76,2.24-5,5-5h120.98
		C197,3.29,199.24,5.53,199.24,8.29z"/>
	<path class="st0" d="M199.24,8.29v74.19l-18.79,22.91l-2.26,2.76c-1.99,2.44-4.97,3.85-8.12,3.85H85.93
		c-3.15,0-6.13-1.41-8.12-3.85L56.76,82.48V8.29c0-2.76,2.24-5,5-5h132.48C197,3.29,199.24,5.53,199.24,8.29z"/>
	<path class="st1" d="M199.24,8.29v74.19l-18.79,22.91H97.43c-3.15,0-6.13-1.41-8.12-3.85L68.26,75.87V3.29h125.98
		C197,3.29,199.24,5.53,199.24,8.29z"/>
	<path class="st4" d="M179.42,34.21v10c0,2.76-2.24,5-5,5H81.58c-2.76,0-5-2.24-5-5v-10c0-2.76,2.24-5,5-5h92.84
		C177.18,29.21,179.42,31.45,179.42,34.21z"/>
	<path class="st5" d="M179.42,34.21c0,2.76-2.24,5-5,5H81.58c-2.76,0-5-2.24-5-5c0-2.76,2.24-5,5-5h92.84
		C177.18,29.21,179.42,31.45,179.42,34.21z"/>
	<circle class="st5" cx="128" cy="201.344" r="30.875"/>
	<path class="st6" d="M147.34,201.34c0,8.93-6.04,16.44-14.26,18.67c-1.62,0.44-3.32,0.68-5.08,0.68
		c-10.68,0-19.34-8.66-19.34-19.35c0-10.68,8.66-19.34,19.34-19.34c1.76,0,3.46,0.23,5.08,0.68
		C141.3,184.9,147.34,192.42,147.34,201.34z"/>
	<path class="st7" d="M147.34,201.34c0,8.93-6.04,16.44-14.26,18.67c-8.23-2.23-14.27-9.74-14.27-18.67
		c0-8.92,6.04-16.44,14.27-18.66C141.3,184.9,147.34,192.42,147.34,201.34z"/>
	<g>
		<path class="st8" d="M194.238,1.292H61.762c-3.86,0-7,3.14-7,7v239.417c0,3.86,3.14,7,7,7h132.477c3.86,0,7-3.14,7-7V8.292
			C201.238,4.432,198.098,1.292,194.238,1.292z M197.238,247.708c0,1.654-1.346,3-3,3H61.762c-1.654,0-3-1.346-3-3V88.075
			l17.499,21.339c2.376,2.915,5.901,4.586,9.67,4.586h84.14c3.769,0,7.293-1.671,9.667-4.582l17.502-21.343V247.708z
			 M197.238,81.767l-20.598,25.118c-1.614,1.979-4.009,3.114-6.57,3.114H85.93c-2.562,0-4.956-1.135-6.574-3.118L58.762,81.767
			V8.292c0-1.654,1.346-3,3-3h132.477c1.654,0,3,1.346,3,3V81.767z"/>
		<path class="st8" d="M174.417,27.208H81.583c-3.86,0-7,3.14-7,7v10c0,3.86,3.14,7,7,7h92.833c3.86,0,7-3.14,7-7v-10
			C181.417,30.349,178.276,27.208,174.417,27.208z M177.417,44.208c0,1.654-1.346,3-3,3H81.583c-1.654,0-3-1.346-3-3v-10
			c0-1.654,1.346-3,3-3h92.833c1.654,0,3,1.346,3,3V44.208z"/>
		<path class="st8" d="M166.75,37.208h-8.667c-2.642,0-2.646,4,0,4h8.667c1.104,0,2-0.896,2-2S167.854,37.208,166.75,37.208z"/>
		<path class="st8" d="M128,168.469c-18.127,0-32.875,14.748-32.875,32.875s14.748,32.875,32.875,32.875
			s32.875-14.748,32.875-32.875S146.127,168.469,128,168.469z M128,230.219c-15.922,0-28.875-12.953-28.875-28.875
			s12.953-28.875,28.875-28.875s28.875,12.953,28.875,28.875S143.922,230.219,128,230.219z"/>
		<path class="st8" d="M128,180c-11.769,0-21.344,9.575-21.344,21.344s9.575,21.344,21.344,21.344s21.344-9.575,21.344-21.344
			S139.769,180,128,180z M128,218.688c-9.563,0-17.344-7.78-17.344-17.344S118.437,184,128,184s17.344,7.78,17.344,17.344
			S137.563,218.688,128,218.688z"/>
		<path class="st8" d="M163.208,126H92.792c-2.642,0-2.646,4,0,4h70.417C165.851,130,165.855,126,163.208,126z"/>
		<path class="st8" d="M163.208,142H92.792c-2.642,0-2.646,4,0,4h70.417C165.851,146,165.855,142,163.208,142z"/>
	</g>
</g>
</svg>
